<?xml version="1.0" encoding="UTF-8" standalone="no"?>
<!DOCTYPE svg PUBLIC "-//W3C//DTD SVG 1.1//EN" "http://www.w3.org/Graphics/SVG/1.1/DTD/svg11.dtd">
<svg width="100%" height="100%" viewBox="0 0 1326 341" version="1.1" xmlns="http://www.w3.org/2000/svg" xmlns:xlink="http://www.w3.org/1999/xlink" xml:space="preserve" xmlns:serif="http://www.serif.com/" style="fill-rule:evenodd;clip-rule:evenodd;stroke-linecap:round;stroke-linejoin:round;stroke-miterlimit:1.5;">
    <g transform="matrix(1,0,0,1,-206.608,-142.064)">
        <g transform="matrix(1,0,0,1,-322,-559)">
            <g transform="matrix(1,0,0,1,-6.5,43.1182)">
                <g>
                    <g transform="matrix(1,0,0,1,608,67)">
                        <rect x="308" y="605.446" width="44.554" height="44.554" style="stroke:black;stroke-width:7px;"/>
                    </g>
                    <g transform="matrix(1,0,0,1,969,79.3333)">
                        <rect x="308" y="605.446" width="44.554" height="44.554" style="stroke:black;stroke-width:7px;"/>
                    </g>
                    <g transform="matrix(1,0,0,1,630.277,258.723)">
                        <rect x="308" y="605.446" width="44.554" height="44.554" style="stroke:black;stroke-width:7px;"/>
                    </g>
                    <g transform="matrix(1,0,0,1,-53.6306,13.4313)">
                        <path d="M632.943,750.877C609.565,868.667 777.952,901.771 859.823,862.837C915.27,836.469 952.75,781.916 973.916,725.999C976.725,718.577 980.442,684.159 987.232,679.252C990.629,676.797 1006.21,678.672 1010.09,679.069C1028.34,680.941 1044.21,689.949 1058.83,700.439C1105.7,734.054 1061.63,746.53 1045.63,780.592C1044.86,782.217 1041.8,790.604 1043.86,792.361C1079.21,822.528 1254.67,776.886 1313.77,811.513C1337.51,825.423 1298.08,852.235 1287.59,859.771C1283.69,862.569 1236.12,901.709 1240.41,903.847C1259.98,913.587 1362.44,820.772 1369.62,786.569C1382.14,726.948 1357.19,672.791 1343.91,671.427C1330.23,670.023 1339.21,687.568 1338.48,699.448C1335.89,741.594 1326.24,727.3 1331.42,769.225C1340.78,845.001 1365.44,891.816 1291.69,943.25C1249.19,972.888 1129.26,996.619 1083.86,968.653C1051.91,948.973 1036.85,922.932 1022.87,889.12C1020.43,883.217 1008.74,872.805 1015.02,871.637C1077.91,859.94 1144.22,870.201 1208.49,856.713C1230.47,852.1 1275.27,829.058 1297.82,834.479C1306.1,836.468 1325.83,860.425 1346.92,864.876C1376.36,871.09 1414.2,875.187 1443.79,867.446C1459.79,863.259 1545.55,890.036 1571.1,883.638C1655.11,862.599 1590.41,679.641 1663.28,672.076C1771.44,660.847 1766.26,846.647 1827.99,824.135C1847.01,817.197 1875.81,779.972 1885.52,748.069" style="fill:none;stroke:black;stroke-width:7px;stroke-linecap:butt;stroke-linejoin:bevel;"/>
                    </g>
                    <g transform="matrix(1,0,0,1,-8.3923,17)">
                        <rect x="547" y="706" width="77" height="77" style="stroke:black;stroke-width:7px;"/>
                    </g>
                    <g transform="matrix(1,0,0,1,1233.39,17)">
                        <rect x="547" y="706" width="77" height="77" style="stroke:black;stroke-width:7px;"/>
                    </g>
                    <g transform="matrix(1,0,0,1,1290,56)">
                        <rect x="308" y="605.446" width="44.554" height="44.554" style="stroke:black;stroke-width:7px;"/>
                    </g>
                    <g transform="matrix(1,0,0,1,1079,252.723)">
                        <rect x="308" y="605.446" width="44.554" height="44.554" style="stroke:black;stroke-width:7px;"/>
                    </g>
                    <g transform="matrix(1,0,0,1,847.446,282)">
                        <rect x="308" y="605.446" width="44.554" height="44.554" style="stroke:black;stroke-width:7px;"/>
                    </g>
                </g>
            </g>
        </g>
    </g>
</svg>
